<svg xmlns="http://www.w3.org/2000/svg" xmlns:xlink="http://www.w3.org/1999/xlink" width="500" zoomAndPan="magnify" viewBox="0 0 375 374.999991" height="500" preserveAspectRatio="xMidYMid meet" version="1.0"><defs><g/><clipPath id="68699879d9"><path d="M 152 80 L 253 80 L 253 182 L 152 182 Z M 152 80 " clip-rule="nonzero"/></clipPath><clipPath id="dc65524388"><path d="M 131.175781 95.761719 L 202.777344 29.582031 L 301.535156 136.433594 L 229.933594 202.609375 Z M 131.175781 95.761719 " clip-rule="nonzero"/></clipPath><clipPath id="368ddcca6d"><path d="M 131.175781 95.761719 L 202.777344 29.582031 L 301.535156 136.433594 L 229.933594 202.609375 Z M 131.175781 95.761719 " clip-rule="nonzero"/></clipPath><clipPath id="a46a06071c"><path d="M 203 32 L 304 32 L 304 135 L 203 135 Z M 203 32 " clip-rule="nonzero"/></clipPath><clipPath id="4c7fb6e58b"><path d="M 182.570312 48.257812 L 254.167969 -17.917969 L 352.929688 88.929688 L 281.328125 155.109375 Z M 182.570312 48.257812 " clip-rule="nonzero"/></clipPath><clipPath id="15718d5cc1"><path d="M 182.570312 48.257812 L 254.167969 -17.917969 L 352.929688 88.929688 L 281.328125 155.109375 Z M 182.570312 48.257812 " clip-rule="nonzero"/></clipPath><clipPath id="c44dc9cbf9"><rect x="0" width="164" y="0" height="313"/></clipPath></defs><g clip-path="url(#68699879d9)"><g clip-path="url(#dc65524388)"><g clip-path="url(#368ddcca6d)"><path fill="#18cb96" d="M 252.601562 83.90625 L 165.769531 80.046875 C 148.996094 79.300781 146.164062 111.972656 166.035156 112.511719 L 220.070312 113.976562 L 215.941406 168.34375 C 214.6875 184.902344 246.976562 186.648438 247.898438 169.824219 Z M 252.601562 83.90625 " fill-opacity="1" fill-rule="nonzero"/></g></g></g><g clip-path="url(#a46a06071c)"><g clip-path="url(#4c7fb6e58b)"><g clip-path="url(#15718d5cc1)"><path fill="#18cb96" d="M 303.996094 36.40625 L 217.160156 32.546875 C 200.390625 31.800781 197.558594 64.472656 217.429688 65.011719 L 271.460938 66.476562 L 267.335938 120.84375 C 266.078125 137.398438 298.367188 139.148438 299.289062 122.324219 Z M 303.996094 36.40625 " fill-opacity="1" fill-rule="nonzero"/></g></g></g><g transform="matrix(1, 0, 0, 1, 33, 46)"><g clip-path="url(#c44dc9cbf9)"><g fill="#ffffff" fill-opacity="1"><g transform="translate(3.27921, 245.772414)"><g><path d="M 126.890625 -131.53125 C 131.367188 -131.53125 134.984375 -130.148438 137.734375 -127.390625 C 140.492188 -124.640625 141.875 -121.195312 141.875 -117.0625 L 141.875 -13.171875 C 141.875 -8.867188 140.28125 -5.597656 137.09375 -3.359375 C 133.90625 -1.117188 130.585938 0 127.140625 0 C 123.347656 0 119.941406 -1.160156 116.921875 -3.484375 C 113.910156 -5.816406 112.40625 -9.132812 112.40625 -13.4375 L 112.40625 -14.46875 C 105.34375 -7.582031 98.019531 -3.019531 90.4375 -0.78125 C 82.863281 1.457031 75.800781 2.578125 69.25 2.578125 C 51.332031 2.578125 37.378906 -3.0625 27.390625 -14.34375 C 17.398438 -25.625 12.40625 -40.914062 12.40625 -60.21875 L 12.40625 -117.0625 C 12.40625 -121.03125 13.695312 -124.429688 16.28125 -127.265625 C 18.863281 -130.109375 22.484375 -131.53125 27.140625 -131.53125 C 31.617188 -131.53125 35.191406 -130.109375 37.859375 -127.265625 C 40.523438 -124.429688 41.859375 -121.03125 41.859375 -117.0625 L 41.859375 -59.703125 C 41.859375 -48.492188 44.398438 -39.617188 49.484375 -33.078125 C 54.566406 -26.535156 62.625 -23.265625 73.65625 -23.265625 C 76.925781 -23.265625 80.753906 -24.164062 85.140625 -25.96875 C 89.535156 -27.78125 93.800781 -30.492188 97.9375 -34.109375 C 102.070312 -37.722656 105.515625 -42.332812 108.265625 -47.9375 C 111.023438 -53.539062 112.40625 -60.128906 112.40625 -67.703125 L 112.40625 -117.0625 C 112.40625 -121.195312 113.613281 -124.640625 116.03125 -127.390625 C 118.445312 -130.148438 122.066406 -131.53125 126.890625 -131.53125 Z M 126.890625 -131.53125 "/></g></g></g></g></g></svg>
